<svg xmlns="http://www.w3.org/2000/svg" viewBox="0 0 168 144" width="168" height="144">
	<defs>
		<clipPath clipPathUnits="userSpaceOnUse" id="cp1">
			<path d="M-396 -288L564 -288L564 432L-396 432L-396 -288Z" />
		</clipPath>
	</defs>
	<style>
		tspan { white-space:pre }
		.shp0 { fill: #000000 } 
		.shp1 { fill: none } 
		.shp2 { fill: none;stroke: #ffffff;stroke-linejoin:round;stroke-width: 4 } 
		.shp3 { fill: #ffffff } 
	</style>
	<g clip-path="url(#cp1)">
		<g >
			<path fill-rule="evenodd" class="shp0" d="M0.88 72L36.88 0L131.12 0L167.12 72L131.12 144L36.88 144L0.88 72Z" />
			<path fill-rule="evenodd" class="shp1" d="M22.66 72L48.22 20.88L119.78 20.88L145.34 72L119.78 123.12L48.22 123.12L22.66 72Z" />
			<path fill-rule="evenodd" class="shp2" d="M22.66 72L48.22 20.88L119.78 20.88L145.34 72L119.78 123.12L48.22 123.12L22.66 72Z" />
			<path fill-rule="evenodd" class="shp1" d="M36 24L132 24L132 120L36 120L36 24Z" />
			<path fill-rule="evenodd" class="shp3" d="M58.77 89.08L58.77 54.81L62.75 54.81L62.75 85.47L77.86 85.47L77.86 89.08L58.77 89.08ZM111.02 71.61C111.02 77.27 109.49 81.6 106.41 84.6C103.35 87.59 98.93 89.08 93.16 89.08L83.68 89.08L83.68 54.81L94.18 54.81C99.5 54.81 103.64 56.29 106.59 59.25C109.54 62.2 111.02 66.32 111.02 71.61ZM106.8 71.75C106.8 67.28 105.68 63.92 103.45 61.66C101.21 59.39 97.87 58.25 93.45 58.25L87.66 58.25L87.66 85.63L92.51 85.63C97.26 85.63 100.83 84.46 103.21 82.13C105.61 79.79 106.8 76.34 106.8 71.75Z" />
		</g>
	</g>
</svg>